<?xml version="1.0" encoding="UTF-8" standalone="no"?>
<!DOCTYPE svg PUBLIC "-//W3C//DTD SVG 1.1//EN"
 "http://www.w3.org/Graphics/SVG/1.1/DTD/svg11.dtd">
<!-- Generated by graphviz version 11.0.0 (20240428.1522)
 -->
<!-- Title: schemas Pages: 1 -->
<svg width="515pt" height="232pt"
 viewBox="0.00 0.00 515.19 231.97" xmlns="http://www.w3.org/2000/svg" xmlns:xlink="http://www.w3.org/1999/xlink">
<g id="graph0" class="graph" transform="scale(1 1) rotate(0) translate(4 227.97)">
<title>schemas</title>
<polygon fill="white" stroke="none" points="-4,4 -4,-227.97 511.19,-227.97 511.19,4 -4,4"/>
<!-- __components_schemas_Pet -->
<g id="node1" class="node">
<title>__components_schemas_Pet</title>
<ellipse fill="none" stroke="black" cx="193" cy="-122.97" rx="55.86" ry="28.99"/>
<text text-anchor="middle" x="193" y="-126.17" font-family="Times,serif" font-size="14.00">Pet</text>
<text text-anchor="middle" x="193" y="-109.67" font-family="Times,serif" font-size="14.00">(array[Pet])</text>
</g>
<!-- __components_schemas_Pet_properties_id -->
<g id="node2" class="node">
<title>__components_schemas_Pet_properties_id</title>
<ellipse fill="none" stroke="black" cx="67" cy="-28.99" rx="67" ry="28.99"/>
<text text-anchor="middle" x="67" y="-32.19" font-family="Times,serif" font-size="14.00">id</text>
<text text-anchor="middle" x="67" y="-15.69" font-family="Times,serif" font-size="14.00">(Integer/int64)</text>
</g>
<!-- __components_schemas_Pet&#45;&gt;__components_schemas_Pet_properties_id -->
<g id="edge1" class="edge">
<title>__components_schemas_Pet&#45;&gt;__components_schemas_Pet_properties_id</title>
<path fill="none" stroke="black" d="M157.3,-100.18C140.89,-88.88 121.47,-74.86 104.82,-62.33"/>
<polygon fill="black" stroke="black" points="107.17,-59.72 97.09,-56.46 102.94,-65.3 107.17,-59.72"/>
</g>
<!-- __components_schemas_Pet&#45;&gt;__components_schemas_Pet_properties_id -->
<g id="edge2" class="edge">
<title>__components_schemas_Pet&#45;&gt;__components_schemas_Pet_properties_id</title>
<path fill="none" stroke="black" d="M165.29,-97.32C150.23,-85.74 131.28,-71.83 114.02,-59.68"/>
<polygon fill="black" stroke="black" points="116.08,-56.85 105.88,-53.99 112.07,-62.59 116.08,-56.85"/>
</g>
<!-- __components_schemas_Pet_properties_name -->
<g id="node3" class="node">
<title>__components_schemas_Pet_properties_name</title>
<ellipse fill="none" stroke="black" cx="193" cy="-28.99" rx="41.01" ry="28.99"/>
<text text-anchor="middle" x="193" y="-32.19" font-family="Times,serif" font-size="14.00">name</text>
<text text-anchor="middle" x="193" y="-15.69" font-family="Times,serif" font-size="14.00">(String)</text>
</g>
<!-- __components_schemas_Pet&#45;&gt;__components_schemas_Pet_properties_name -->
<g id="edge3" class="edge">
<title>__components_schemas_Pet&#45;&gt;__components_schemas_Pet_properties_name</title>
<path fill="none" stroke="black" d="M186.72,-93.88C186.29,-86.12 186.15,-77.56 186.31,-69.29"/>
<polygon fill="black" stroke="black" points="189.8,-69.55 186.68,-59.43 182.81,-69.29 189.8,-69.55"/>
</g>
<!-- __components_schemas_Pet&#45;&gt;__components_schemas_Pet_properties_name -->
<g id="edge4" class="edge">
<title>__components_schemas_Pet&#45;&gt;__components_schemas_Pet_properties_name</title>
<path fill="none" stroke="black" d="M199.27,-93.88C199.71,-86.12 199.84,-77.56 199.68,-69.29"/>
<polygon fill="black" stroke="black" points="203.19,-69.29 199.32,-59.43 196.19,-69.55 203.19,-69.29"/>
</g>
<!-- __components_schemas_Pet_properties_tag -->
<g id="node4" class="node">
<title>__components_schemas_Pet_properties_tag</title>
<ellipse fill="none" stroke="black" cx="293" cy="-28.99" rx="41.01" ry="28.99"/>
<text text-anchor="middle" x="293" y="-32.19" font-family="Times,serif" font-size="14.00">tag</text>
<text text-anchor="middle" x="293" y="-15.69" font-family="Times,serif" font-size="14.00">(String)</text>
</g>
<!-- __components_schemas_Pet&#45;&gt;__components_schemas_Pet_properties_tag -->
<g id="edge5" class="edge">
<title>__components_schemas_Pet&#45;&gt;__components_schemas_Pet_properties_tag</title>
<path fill="none" stroke="black" d="M214.98,-96.11C227.22,-84.14 242.66,-69.9 256.61,-57.71"/>
<polygon fill="black" stroke="black" points="258.62,-60.6 263.91,-51.42 254.05,-55.29 258.62,-60.6"/>
</g>
<!-- __components_schemas_Pet&#45;&gt;__components_schemas_Pet_properties_tag -->
<g id="edge6" class="edge">
<title>__components_schemas_Pet&#45;&gt;__components_schemas_Pet_properties_tag</title>
<path fill="none" stroke="black" d="M224.46,-98.53C237.23,-87.54 251.82,-74.28 264.29,-62.36"/>
<polygon fill="black" stroke="black" points="266.71,-64.89 271.46,-55.41 261.84,-59.86 266.71,-64.89"/>
</g>
<!-- __components_schemas_Pets -->
<g id="node5" class="node">
<title>__components_schemas_Pets</title>
<ellipse fill="none" stroke="black" cx="193" cy="-205.97" rx="27" ry="18"/>
<text text-anchor="middle" x="193" y="-200.92" font-family="Times,serif" font-size="14.00">Pets</text>
</g>
<!-- __components_schemas_Pets&#45;&gt;__components_schemas_Pet -->
<g id="edge7" class="edge">
<title>__components_schemas_Pets&#45;&gt;__components_schemas_Pet</title>
<path fill="none" stroke="black" d="M187.41,-188.18C186.6,-180.97 186.22,-172.2 186.25,-163.49"/>
<polygon fill="black" stroke="black" points="189.74,-163.81 186.49,-153.73 182.75,-163.64 189.74,-163.81"/>
</g>
<!-- __components_schemas_Pets&#45;&gt;__components_schemas_Pet -->
<g id="edge8" class="edge">
<title>__components_schemas_Pets&#45;&gt;__components_schemas_Pet</title>
<path fill="none" stroke="black" d="M198.59,-188.18C199.39,-180.97 199.78,-172.2 199.75,-163.49"/>
<polygon fill="black" stroke="black" points="203.25,-163.64 199.5,-153.73 196.25,-163.81 203.25,-163.64"/>
</g>
<!-- __components_schemas_Error -->
<g id="node6" class="node">
<title>__components_schemas_Error</title>
<ellipse fill="none" stroke="black" cx="398" cy="-205.97" rx="30.37" ry="18"/>
<text text-anchor="middle" x="398" y="-200.92" font-family="Times,serif" font-size="14.00">Error</text>
</g>
<!-- __components_schemas_Error_properties_code -->
<g id="node7" class="node">
<title>__components_schemas_Error_properties_code</title>
<ellipse fill="none" stroke="black" cx="334" cy="-122.97" rx="67" ry="28.99"/>
<text text-anchor="middle" x="334" y="-126.17" font-family="Times,serif" font-size="14.00">code</text>
<text text-anchor="middle" x="334" y="-109.67" font-family="Times,serif" font-size="14.00">(Integer/int32)</text>
</g>
<!-- __components_schemas_Error&#45;&gt;__components_schemas_Error_properties_code -->
<g id="edge9" class="edge">
<title>__components_schemas_Error&#45;&gt;__components_schemas_Error_properties_code</title>
<path fill="none" stroke="black" d="M385.66,-189.35C378.97,-180.89 370.42,-170.06 362.2,-159.66"/>
<polygon fill="black" stroke="black" points="365.01,-157.57 356.06,-151.89 359.51,-161.91 365.01,-157.57"/>
</g>
<!-- __components_schemas_Error_properties_message -->
<g id="node8" class="node">
<title>__components_schemas_Error_properties_message</title>
<ellipse fill="none" stroke="black" cx="463" cy="-122.97" rx="44.19" ry="28.99"/>
<text text-anchor="middle" x="463" y="-126.17" font-family="Times,serif" font-size="14.00">message</text>
<text text-anchor="middle" x="463" y="-109.67" font-family="Times,serif" font-size="14.00">(String)</text>
</g>
<!-- __components_schemas_Error&#45;&gt;__components_schemas_Error_properties_message -->
<g id="edge10" class="edge">
<title>__components_schemas_Error&#45;&gt;__components_schemas_Error_properties_message</title>
<path fill="none" stroke="black" d="M410.53,-189.35C417.68,-180.44 426.93,-168.92 435.67,-158.03"/>
<polygon fill="black" stroke="black" points="438.36,-160.27 441.89,-150.28 432.9,-155.89 438.36,-160.27"/>
</g>
</g>
</svg>
